{
  "accessors": [
    {
      "bufferView": 2,
      "componentType": 5126,
      "count": 40,
      "max": [
        7.2741880416870117,
        -18.680778503417969,
        40.752738952636719
      ],
      "min": [
        -7.2741880416870117,
        -19.213058471679688,
        39.462165832519531
      ],
      "type": "VEC3"
    },
    {
      "bufferView": 2,
      "byteOffset": 480,
      "componentType": 5126,
      "count": 40,
      "max": [
        0.49727421998977661,
        -0.055997345596551895,
        0.99775266647338867
      ],
      "min": [
        -0.49727421998977661,
        -0.99948090314865112,
        -0.95672261714935303
      ],
      "type": "VEC3"
    },
    {
      "bufferView": 3,
      "componentType": 5126,
      "count": 40,
      "max": [
        0.98665553331375122,
        0.96891993284225464,
        0.99479186534881592,
        1
      ],
      "min": [
        -0.98606991767883301,
        -0.96891683340072632,
        -0.99498569965362549,
        1
      ],
      "type": "VEC4"
    },
    {
      "bufferView": 1,
      "componentType": 5126,
      "count": 40,
      "max": [
        0.947409987449646,
        0.27781000733375549
      ],
      "min": [
        0.089429996907711029,
        0.0073319999501109123
      ],
      "type": "VEC2"
    },
    {
      "bufferView": 0,
      "componentType": 5125,
      "count": 48,
      "max": [
        39
      ],
      "min": [
        0
      ],
      "type": "SCALAR"
    },
    {
      "bufferView": 2,
      "byteOffset": 960,
      "componentType": 5126,
      "count": 10017,
      "max": [
        24.012224197387695,
        28.173185348510742,
        94.908943176269531
      ],
      "min": [
        -24.012224197387695,
        -19.503133773803711,
        1.8999999156221747e-05
      ],
      "type": "VEC3"
    },
    {
      "bufferView": 2,
      "byteOffset": 121164,
      "componentType": 5126,
      "count": 10017,
      "max": [
        1,
        0.99999082088470459,
        0.99999821186065674
      ],
      "min": [
        -1,
        -0.99999880790710449,
        -1
      ],
      "type": "VEC3"
    },
    {
      "bufferView": 3,
      "byteOffset": 640,
      "componentType": 5126,
      "count": 10017,
      "max": [
        1,
        0.99999344348907471,
        0.99999958276748657,
        1
      ],
      "min": [
        -1,
        -0.99999594688415527,
        -0.9999992847442627,
        -1
      ],
      "type": "VEC4"
    },
    {
      "bufferView": 1,
      "byteOffset": 320,
      "componentType": 5126,
      "count": 10017,
      "max": [
        0.99730598926544189,
        0.99675798416137695
      ],
      "min": [
        0.0025869999080896378,
        0.0025839998852461576
      ],
      "type": "VEC2"
    },
    {
      "bufferView": 0,
      "byteOffset": 192,
      "componentType": 5125,
      "count": 37806,
      "max": [
        10016
      ],
      "min": [
        0
      ],
      "type": "SCALAR"
    },
    {
      "bufferView": 2,
      "byteOffset": 241368,
      "componentType": 5126,
      "count": 72,
      "max": [
        20.811161041259766,
        20.26304817199707,
        42.728084564208984
      ],
      "min": [
        -20.811161041259766,
        -16.448123931884766,
        39.304950714111328
      ],
      "type": "VEC3"
    },
    {
      "bufferView": 2,
      "byteOffset": 242232,
      "componentType": 5126,
      "count": 72,
      "max": [
        0.99708503484725952,
        0.99999558925628662,
        0.99999988079071045
      ],
      "min": [
        -0.99708503484725952,
        -0.99996030330657959,
        -0.99999988079071045
      ],
      "type": "VEC3"
    },
    {
      "bufferView": 1,
      "byteOffset": 80456,
      "componentType": 5126,
      "count": 72,
      "max": [
        0.29659101366996765,
        0.31649601459503174
      ],
      "min": [
        0.17624600231647491,
        0.25565299391746521
      ],
      "type": "VEC2"
    },
    {
      "bufferView": 0,
      "byteOffset": 151416,
      "componentType": 5125,
      "count": 96,
      "max": [
        71
      ],
      "min": [
        0
      ],
      "type": "SCALAR"
    },
    {
      "bufferView": 2,
      "byteOffset": 243096,
      "componentType": 5126,
      "count": 65532,
      "max": [
        22.383207321166992,
        21.681756973266602,
        43.171188354492188
      ],
      "min": [
        -22.383207321166992,
        -18.885936737060547,
        39.667488098144531
      ],
      "type": "VEC3"
    },
    {
      "bufferView": 2,
      "byteOffset": 1029480,
      "componentType": 5126,
      "count": 65532,
      "max": [
        1,
        1,
        1
      ],
      "min": [
        -1,
        -1,
        -1
      ],
      "type": "VEC3"
    },
    {
      "bufferView": 3,
      "byteOffset": 160912,
      "componentType": 5126,
      "count": 65532,
      "max": [
        1,
        1,
        1,
        1
      ],
      "min": [
        -1,
        -1,
        -1,
        -1
      ],
      "type": "VEC4"
    },
    {
      "bufferView": 1,
      "byteOffset": 81032,
      "componentType": 5126,
      "count": 65532,
      "max": [
        0.39866900444030762,
        1.9933819770812988
      ],
      "min": [
        0.33144599199295044,
        -1.5756239891052246
      ],
      "type": "VEC2"
    },
    {
      "bufferView": 0,
      "byteOffset": 151800,
      "componentType": 5125,
      "count": 344958,
      "max": [
        65531
      ],
      "min": [
        0
      ],
      "type": "SCALAR"
    },
    {
      "bufferView": 2,
      "byteOffset": 1815864,
      "componentType": 5126,
      "count": 55805,
      "max": [
        0.0017359999474138021,
        21.681756973266602,
        43.171188354492188
      ],
      "min": [
        -22.029401779174805,
        -18.885936737060547,
        39.667488098144531
      ],
      "type": "VEC3"
    },
    {
      "bufferView": 2,
      "byteOffset": 2485524,
      "componentType": 5126,
      "count": 55805,
      "max": [
        1,
        1,
        1
      ],
      "min": [
        -1,
        -1,
        -1
      ],
      "type": "VEC3"
    },
    {
      "bufferView": 3,
      "byteOffset": 1209424,
      "componentType": 5126,
      "count": 55805,
      "max": [
        1,
        1,
        1,
        1
      ],
      "min": [
        -1,
        -1,
        -1,
        -1
      ],
      "type": "VEC4"
    },
    {
      "bufferView": 1,
      "byteOffset": 605288,
      "componentType": 5126,
      "count": 55805,
      "max": [
        0.39866900444030762,
        1.9933819770812988
      ],
      "min": [
        0.33177599310874939,
        -1.5756239891052246
      ],
      "type": "VEC2"
    },
    {
      "bufferView": 0,
      "byteOffset": 1531632,
      "componentType": 5125,
      "count": 292962,
      "max": [
        55804
      ],
      "min": [
        0
      ],
      "type": "SCALAR"
    },
    {
      "bufferView": 2,
      "byteOffset": 3155184,
      "componentType": 5126,
      "count": 65532,
      "max": [
        22.383207321166992,
        21.681756973266602,
        46.142021179199219
      ],
      "min": [
        -22.383207321166992,
        -18.885936737060547,
        42.638320922851562
      ],
      "type": "VEC3"
    },
    {
      "bufferView": 2,
      "byteOffset": 3941568,
      "componentType": 5126,
      "count": 65532,
      "max": [
        1,
        1,
        1
      ],
      "min": [
        -1,
        -1,
        -1
      ],
      "type": "VEC3"
    },
    {
      "bufferView": 3,
      "byteOffset": 2102304,
      "componentType": 5126,
      "count": 65532,
      "max": [
        1,
        1,
        1,
        1
      ],
      "min": [
        -1,
        -1,
        -1,
        -1
      ],
      "type": "VEC4"
    },
    {
      "bufferView": 1,
      "byteOffset": 1051728,
      "componentType": 5126,
      "count": 65532,
      "max": [
        0.39866900444030762,
        1.9933819770812988
      ],
      "min": [
        0.33144599199295044,
        -1.5756239891052246
      ],
      "type": "VEC2"
    },
    {
      "bufferView": 0,
      "byteOffset": 2703480,
      "componentType": 5125,
      "count": 344838,
      "max": [
        65531
      ],
      "min": [
        0
      ],
      "type": "SCALAR"
    },
    {
      "bufferView": 2,
      "byteOffset": 4727952,
      "componentType": 5126,
      "count": 55823,
      "max": [
        0.0017359999474138021,
        21.681756973266602,
        46.142021179199219
      ],
      "min": [
        -22.029401779174805,
        -18.885936737060547,
        42.638320922851562
      ],
      "type": "VEC3"
    },
    {
      "bufferView": 2,
      "byteOffset": 5397828,
      "componentType": 5126,
      "count": 55823,
      "max": [
        1,
        1,
        1
      ],
      "min": [
        -1,
        -1,
        -1
      ],
      "type": "VEC3"
    },
    {
      "bufferView": 3,
      "byteOffset": 3150816,
      "componentType": 5126,
      "count": 55823,
      "max": [
        1,
        1,
        1,
        1
      ],
      "min": [
        -1,
        -1,
        -1,
        -1
      ],
      "type": "VEC4"
    },
    {
      "bufferView": 1,
      "byteOffset": 1575984,
      "componentType": 5126,
      "count": 55823,
      "max": [
        0.39866900444030762,
        1.9933819770812988
      ],
      "min": [
        0.33177599310874939,
        -1.5756239891052246
      ],
      "type": "VEC2"
    },
    {
      "bufferView": 0,
      "byteOffset": 4082832,
      "componentType": 5125,
      "count": 293082,
      "max": [
        55822
      ],
      "min": [
        0
      ],
      "type": "SCALAR"
    }
  ],
  "asset": {
    "extras": {
      "author": "Interiors3D (https://sketchfab.com/Interiors3D)",
      "license": "CC-BY-4.0 (http://creativecommons.org/licenses/by/4.0/)",
      "source": "https://sketchfab.com/3d-models/ppha00-45ec47f11de34a9ea7aa945ca5bdfae8",
      "title": "PPHA00"
    },
    "generator": "Sketchfab-7.38.0",
    "version": "2.0"
  },
  "bufferViews": [
    {
      "buffer": 0,
      "byteLength": 5255160,
      "byteOffset": 0,
      "name": "floatBufferViews",
      "target": 34963
    },
    {
      "buffer": 0,
      "byteLength": 2022568,
      "byteOffset": 5255160,
      "byteStride": 8,
      "name": "floatBufferViews",
      "target": 34962
    },
    {
      "buffer": 0,
      "byteLength": 6067704,
      "byteOffset": 7277728,
      "byteStride": 12,
      "name": "floatBufferViews",
      "target": 34962
    },
    {
      "buffer": 0,
      "byteLength": 4043984,
      "byteOffset": 13345432,
      "byteStride": 16,
      "name": "floatBufferViews",
      "target": 34962
    }
  ],
  "buffers": [
    {
      "byteLength": 17389416,
      "uri": "scene.bin"
    }
  ],
  "images": [
    {
      "uri": "textures/Painted_wood_baseColor.png"
    },
    {
      "uri": "textures/Painted_wood_metallicRoughness.png"
    },
    {
      "uri": "textures/Painted_wood_normal.png"
    },
    {
      "uri": "textures/Rattan_baseColor.jpeg"
    },
    {
      "uri": "textures/Rattan_metallicRoughness.png"
    },
    {
      "uri": "textures/Rattan_normal.png"
    }
  ],
  "materials": [
    {
      "doubleSided": true,
      "emissiveFactor": [
        0,
        0,
        0
      ],
      "name": "Painted_wood",
      "normalTexture": {
        "index": 2,
        "scale": 1,
        "texCoord": 0
      },
      "pbrMetallicRoughness": {
        "baseColorFactor": [
          1,
          1,
          1,
          1
        ],
        "baseColorTexture": {
          "index": 0,
          "texCoord": 0
        },
        "metallicFactor": 0,
        "metallicRoughnessTexture": {
          "index": 1,
          "texCoord": 0
        },
        "roughnessFactor": 1
      }
    },
    {
      "doubleSided": true,
      "emissiveFactor": [
        0,
        0,
        0
      ],
      "name": "Painted_wood.001",
      "pbrMetallicRoughness": {
        "baseColorFactor": [
          0.80000000000000004,
          0.80000000000000004,
          0.80000000000000004,
          1
        ],
        "metallicFactor": 0,
        "roughnessFactor": 0.80635083268962915
      }
    },
    {
      "doubleSided": true,
      "emissiveFactor": [
        0,
        0,
        0
      ],
      "name": "Rattan",
      "normalTexture": {
        "index": 5,
        "scale": 1,
        "texCoord": 0
      },
      "pbrMetallicRoughness": {
        "baseColorFactor": [
          1,
          1,
          1,
          1
        ],
        "baseColorTexture": {
          "index": 3,
          "texCoord": 0
        },
        "metallicFactor": 0,
        "metallicRoughnessTexture": {
          "index": 4,
          "texCoord": 0
        },
        "roughnessFactor": 0.69999999999999996
      }
    }
  ],
  "meshes": [
    {
      "primitives": [
        {
          "attributes": {
            "NORMAL": 1,
            "POSITION": 0,
            "TANGENT": 2,
            "TEXCOORD_0": 3
          },
          "indices": 4,
          "material": 0,
          "mode": 4
        }
      ]
    },
    {
      "primitives": [
        {
          "attributes": {
            "NORMAL": 6,
            "POSITION": 5,
            "TANGENT": 7,
            "TEXCOORD_0": 8
          },
          "indices": 9,
          "material": 0,
          "mode": 4
        }
      ]
    },
    {
      "primitives": [
        {
          "attributes": {
            "NORMAL": 11,
            "POSITION": 10,
            "TEXCOORD_0": 12
          },
          "indices": 13,
          "material": 1,
          "mode": 4
        }
      ]
    },
    {
      "primitives": [
        {
          "attributes": {
            "NORMAL": 15,
            "POSITION": 14,
            "TANGENT": 16,
            "TEXCOORD_0": 17
          },
          "indices": 18,
          "material": 2,
          "mode": 4
        }
      ]
    },
    {
      "primitives": [
        {
          "attributes": {
            "NORMAL": 20,
            "POSITION": 19,
            "TANGENT": 21,
            "TEXCOORD_0": 22
          },
          "indices": 23,
          "material": 2,
          "mode": 4
        }
      ]
    },
    {
      "primitives": [
        {
          "attributes": {
            "NORMAL": 25,
            "POSITION": 24,
            "TANGENT": 26,
            "TEXCOORD_0": 27
          },
          "indices": 28,
          "material": 2,
          "mode": 4
        }
      ]
    },
    {
      "primitives": [
        {
          "attributes": {
            "NORMAL": 30,
            "POSITION": 29,
            "TANGENT": 31,
            "TEXCOORD_0": 32
          },
          "indices": 33,
          "material": 2,
          "mode": 4
        }
      ]
    }
  ],
  "nodes": [
    {
      "children": [
        1
      ],
      "name": "RootNode (gltf orientation matrix)",
      "rotation": [
        -0.70710678118654746,
        -0,
        -0,
        0.70710678118654757
      ]
    },
    {
      "children": [
        2
      ],
      "name": "RootNode (model correction matrix)"
    },
    {
      "children": [
        3,
        4,
        5,
        6,
        7,
        8,
        9
      ],
      "name": "W52 - PPHA - Sketchfab - mesh.obj.cleaner.materialmerger.gles"
    },
    {
      "mesh": 0,
      "name": ""
    },
    {
      "mesh": 1,
      "name": ""
    },
    {
      "mesh": 2,
      "name": ""
    },
    {
      "mesh": 3,
      "name": ""
    },
    {
      "mesh": 4,
      "name": ""
    },
    {
      "mesh": 5,
      "name": ""
    },
    {
      "mesh": 6,
      "name": ""
    }
  ],
  "samplers": [
    {
      "magFilter": 9729,
      "minFilter": 9987,
      "wrapS": 10497,
      "wrapT": 10497
    }
  ],
  "scene": 0,
  "scenes": [
    {
      "name": "OSG_Scene",
      "nodes": [
        0
      ]
    }
  ],
  "textures": [
    {
      "sampler": 0,
      "source": 0
    },
    {
      "sampler": 0,
      "source": 1
    },
    {
      "sampler": 0,
      "source": 2
    },
    {
      "sampler": 0,
      "source": 3
    },
    {
      "sampler": 0,
      "source": 4
    },
    {
      "sampler": 0,
      "source": 5
    }
  ]
}

